<svg width="600" height="400" xmlns="http://www.w3.org/2000/svg">
  <defs>
    <linearGradient id="headerGradient" x1="0%" y1="0%" x2="100%" y2="0%">
      <stop offset="0%" style="stop-color:#1e3a8a;stop-opacity:1" />
      <stop offset="100%" style="stop-color:#3b82f6;stop-opacity:1" />
    </linearGradient>
    <linearGradient id="cardGradient" x1="0%" y1="0%" x2="0%" y2="100%">
      <stop offset="0%" style="stop-color:#ffffff;stop-opacity:1" />
      <stop offset="100%" style="stop-color:#f8fafc;stop-opacity:1" />
    </linearGradient>
    <linearGradient id="chartGradient" x1="0%" y1="0%" x2="0%" y2="100%">
      <stop offset="0%" style="stop-color:#10b981;stop-opacity:0.8" />
      <stop offset="100%" style="stop-color:#10b981;stop-opacity:0.2" />
    </linearGradient>
  </defs>
  
  <!-- Background -->
  <rect width="600" height="400" fill="#f1f5f9" rx="12"/>
  
  <!-- Header -->
  <rect width="600" height="60" fill="url(#headerGradient)" rx="12"/>
  <rect y="50" width="600" height="12" fill="url(#headerGradient)"/>
  
  <!-- Logo and Title -->
  <circle cx="30" cy="30" r="12" fill="#ffffff" opacity="0.9"/>
  <text x="50" y="25" font-family="Arial, sans-serif" font-size="14" font-weight="bold" fill="#ffffff">Aksjeradar</text>
  <text x="50" y="40" font-family="Arial, sans-serif" font-size="10" fill="#e2e8f0">Dashboard</text>
  
  <!-- Navigation -->
  <rect x="200" y="20" width="60" height="6" fill="#ffffff" opacity="0.7" rx="3"/>
  <rect x="270" y="20" width="50" height="6" fill="#ffffff" opacity="0.5" rx="3"/>
  <rect x="330" y="20" width="55" height="6" fill="#ffffff" opacity="0.5" rx="3"/>
  
  <!-- User menu -->
  <circle cx="560" cy="30" r="15" fill="#ffffff" opacity="0.2"/>
  <text x="556" y="34" font-family="Arial, sans-serif" font-size="12" fill="#ffffff">👤</text>
  
  <!-- Main content area -->
  <rect x="20" y="80" width="560" height="300" fill="#ffffff" rx="8" stroke="#e2e8f0" stroke-width="1"/>
  
  <!-- Portfolio overview card -->
  <rect x="40" y="100" width="250" height="120" fill="url(#cardGradient)" rx="6" stroke="#e2e8f0" stroke-width="1"/>
  <text x="50" y="120" font-family="Arial, sans-serif" font-size="12" font-weight="bold" fill="#1e293b">Portefølje Oversikt</text>
  <text x="50" y="140" font-family="Arial, sans-serif" font-size="18" font-weight="bold" fill="#059669">2,847,500 kr</text>
  <text x="50" y="155" font-family="Arial, sans-serif" font-size="10" fill="#64748b">+147,500 kr (+5.45%) i dag</text>
  
  <!-- Mini chart in portfolio card -->
  <polyline points="50,170 70,165 90,160 110,155 130,150 150,145 170,140 190,135 210,130 230,125 250,120" 
           fill="none" stroke="#10b981" stroke-width="2"/>
  <polygon points="50,190 70,185 90,180 110,175 130,170 150,165 170,160 190,155 210,150 230,145 250,140 250,190" 
           fill="url(#chartGradient)"/>
  
  <!-- Stock watchlist -->
  <rect x="310" y="100" width="250" height="120" fill="url(#cardGradient)" rx="6" stroke="#e2e8f0" stroke-width="1"/>
  <text x="320" y="120" font-family="Arial, sans-serif" font-size="12" font-weight="bold" fill="#1e293b">Watchlist</text>
  
  <!-- Stock rows -->
  <text x="320" y="140" font-family="Arial, sans-serif" font-size="10" fill="#1e293b">EQUI</text>
  <text x="480" y="140" font-family="Arial, sans-serif" font-size="10" fill="#059669">+12.4%</text>
  <text x="530" y="140" font-family="Arial, sans-serif" font-size="10" fill="#1e293b">245.60</text>
  
  <text x="320" y="155" font-family="Arial, sans-serif" font-size="10" fill="#1e293b">DNB</text>
  <text x="480" y="155" font-family="Arial, sans-serif" font-size="10" fill="#dc2626">-2.1%</text>
  <text x="530" y="155" font-family="Arial, sans-serif" font-size="10" fill="#1e293b">198.40</text>
  
  <text x="320" y="170" font-family="Arial, sans-serif" font-size="10" fill="#1e293b">NHY</text>
  <text x="480" y="170" font-family="Arial, sans-serif" font-size="10" fill="#059669">+8.7%</text>
  <text x="530" y="170" font-family="Arial, sans-serif" font-size="10" fill="#1e293b">567.20</text>
  
  <text x="320" y="185" font-family="Arial, sans-serif" font-size="10" fill="#1e293b">TEL</text>
  <text x="480" y="185" font-family="Arial, sans-serif" font-size="10" fill="#059669">+1.8%</text>
  <text x="530" y="185" font-family="Arial, sans-serif" font-size="10" fill="#1e293b">156.80</text>
  
  <!-- AI Analysis section -->
  <rect x="40" y="240" width="520" height="120" fill="url(#cardGradient)" rx="6" stroke="#e2e8f0" stroke-width="1"/>
  <text x="50" y="260" font-family="Arial, sans-serif" font-size="12" font-weight="bold" fill="#1e293b">🤖 AI Analyse & Anbefalinger</text>
  
  <!-- AI recommendation cards -->
  <rect x="60" y="275" width="140" height="70" fill="#f0fdf4" rx="4" stroke="#bbf7d0" stroke-width="1"/>
  <text x="70" y="290" font-family="Arial, sans-serif" font-size="10" font-weight="bold" fill="#059669">KJØP</text>
  <text x="70" y="305" font-family="Arial, sans-serif" font-size="9" fill="#1e293b">MOWI</text>
  <text x="70" y="318" font-family="Arial, sans-serif" font-size="8" fill="#64748b">AI Score: 8.7/10</text>
  <text x="70" y="330" font-family="Arial, sans-serif" font-size="8" fill="#64748b">Mål: 285 kr (+15%)</text>
  
  <rect x="220" y="275" width="140" height="70" fill="#fef3c7" rx="4" stroke="#fbbf24" stroke-width="1"/>
  <text x="230" y="290" font-family="Arial, sans-serif" font-size="10" font-weight="bold" fill="#d97706">HOLD</text>
  <text x="230" y="305" font-family="Arial, sans-serif" font-size="9" fill="#1e293b">AKER</text>
  <text x="230" y="318" font-family="Arial, sans-serif" font-size="8" fill="#64748b">AI Score: 6.2/10</text>
  <text x="230" y="330" font-family="Arial, sans-serif" font-size="8" fill="#64748b">Avvent Q4 tall</text>
  
  <rect x="380" y="275" width="140" height="70" fill="#fee2e2" rx="4" stroke="#fca5a5" stroke-width="1"/>
  <text x="390" y="290" font-family="Arial, sans-serif" font-size="10" font-weight="bold" fill="#dc2626">SELG</text>
  <text x="390" y="305" font-family="Arial, sans-serif" font-size="9" fill="#1e293b">REC</text>
  <text x="390" y="318" font-family="Arial, sans-serif" font-size="8" fill="#64748b">AI Score: 3.1/10</text>
  <text x="390" y="330" font-family="Arial, sans-serif" font-size="8" fill="#64748b">Høy risiko</text>
  
  <!-- Subtle shadows -->
  <rect x="42" y="102" width="250" height="120" fill="none" stroke="#000000" stroke-width="0.5" opacity="0.1" rx="6"/>
  <rect x="312" y="102" width="250" height="120" fill="none" stroke="#000000" stroke-width="0.5" opacity="0.1" rx="6"/>
  <rect x="42" y="242" width="520" height="120" fill="none" stroke="#000000" stroke-width="0.5" opacity="0.1" rx="6"/>
</svg>
